{
  "accessors": [
    {
      "bufferView": 2,
      "componentType": 5126,
      "count": 3908,
      "max": [
        0.6512537002563477,
        0.7640253901481628,
        0.21419158577919006
      ],
      "min": [
        -2.2332382202148438,
        -0.6168696284294128,
        -0.018590880557894707
      ],
      "type": "VEC3"
    },
    {
      "bufferView": 2,
      "byteOffset": 46896,
      "componentType": 5126,
      "count": 3908,
      "max": [
        0.9993751049041748,
        0.9997848272323608,
        0.9999916553497314
      ],
      "min": [
        -0.9998853206634521,
        -0.9998962879180908,
        -0.9999970197677612
      ],
      "type": "VEC3"
    },
    {
      "bufferView": 1,
      "componentType": 5126,
      "count": 3908,
      "max": [
        0.7713582515716553,
        0.4623020887374878
      ],
      "min": [
        0.2773645520210266,
        0.24425476789474487
      ],
      "type": "VEC2"
    },
    {
      "bufferView": 0,
      "componentType": 5125,
      "count": 23040,
      "type": "SCALAR"
    },
    {
      "bufferView": 2,
      "byteOffset": 93792,
      "componentType": 5126,
      "count": 882,
      "max": [
        1.355144739151001,
        5.824557304382324,
        1.7331246137619019
      ],
      "min": [
        -6.75126838684082,
        -1.5478678941726685,
        -1.2696003913879395
      ],
      "type": "VEC3"
    },
    {
      "bufferView": 2,
      "byteOffset": 104376,
      "componentType": 5126,
      "count": 882,
      "max": [
        0.9995849132537842,
        0.9996906518936157,
        1.0
      ],
      "min": [
        -0.9995849132537842,
        -0.9899054765701294,
        -1.0
      ],
      "type": "VEC3"
    },
    {
      "bufferView": 1,
      "byteOffset": 31264,
      "componentType": 5126,
      "count": 882,
      "max": [
        0.8750001192092896,
        1.0000001192092896
      ],
      "min": [
        0.125,
        0.0
      ],
      "type": "VEC2"
    },
    {
      "bufferView": 0,
      "byteOffset": 92160,
      "componentType": 5125,
      "count": 4608,
      "type": "SCALAR"
    },
    {
      "bufferView": 2,
      "byteOffset": 114960,
      "componentType": 5126,
      "count": 1738,
      "max": [
        1.0120452642440796,
        0.82172691822052,
        0.645844578742981
      ],
      "min": [
        -1.0120452642440796,
        -1.5571129322052002,
        -0.9692215323448181
      ],
      "type": "VEC3"
    },
    {
      "bufferView": 2,
      "byteOffset": 135816,
      "componentType": 5126,
      "count": 1738,
      "max": [
        0.999725341796875,
        0.9998540878295898,
        0.99993896484375
      ],
      "min": [
        -0.999725341796875,
        -0.9999452829360962,
        -1.0
      ],
      "type": "VEC3"
    },
    {
      "bufferView": 1,
      "byteOffset": 38320,
      "componentType": 5126,
      "count": 1738,
      "max": [
        0.7500001192092896,
        0.8750001192092896
      ],
      "min": [
        0.25,
        0.375
      ],
      "type": "VEC2"
    },
    {
      "bufferView": 0,
      "byteOffset": 110592,
      "componentType": 5125,
      "count": 9024,
      "type": "SCALAR"
    },
    {
      "bufferView": 2,
      "byteOffset": 156672,
      "componentType": 5126,
      "count": 354,
      "max": [
        0.14810757339000702,
        1.0746064186096191,
        0.831213116645813
      ],
      "min": [
        -0.14810757339000702,
        0.20643404126167297,
        0.041041355580091476
      ],
      "type": "VEC3"
    },
    {
      "bufferView": 2,
      "byteOffset": 160920,
      "componentType": 5126,
      "count": 354,
      "max": [
        0.9999744892120361,
        0.9992103576660156,
        0.9941502809524536
      ],
      "min": [
        -0.9999744892120361,
        -0.9855974316596985,
        -0.9943050146102905
      ],
      "type": "VEC3"
    },
    {
      "bufferView": 1,
      "byteOffset": 52224,
      "componentType": 5126,
      "count": 354,
      "max": [
        0.0,
        0.0
      ],
      "min": [
        0.0,
        0.0
      ],
      "type": "VEC2"
    },
    {
      "bufferView": 0,
      "byteOffset": 146688,
      "componentType": 5125,
      "count": 2112,
      "type": "SCALAR"
    },
    {
      "bufferView": 2,
      "byteOffset": 165168,
      "componentType": 5126,
      "count": 705,
      "max": [
        0.8955232501029968,
        0.8955232501029968,
        0.5200473666191101
      ],
      "min": [
        -0.8955232501029968,
        -0.8955233097076416,
        -0.9461117386817932
      ],
      "type": "VEC3"
    },
    {
      "bufferView": 2,
      "byteOffset": 173628,
      "componentType": 5126,
      "count": 705,
      "max": [
        0.9999971389770508,
        0.9999971389770508,
        1.0
      ],
      "min": [
        -0.9999971389770508,
        -0.9999971389770508,
        -1.0
      ],
      "type": "VEC3"
    },
    {
      "bufferView": 1,
      "byteOffset": 55056,
      "componentType": 5126,
      "count": 705,
      "max": [
        0.8750001192092896,
        1.0000001192092896
      ],
      "min": [
        0.1250000149011612,
        0.0
      ],
      "type": "VEC2"
    },
    {
      "bufferView": 0,
      "byteOffset": 155136,
      "componentType": 5125,
      "count": 3840,
      "type": "SCALAR"
    }
  ],
  "asset": {
    "extras": {
      "author": "Weiting Ke (https://sketchfab.com/adlib)",
      "license": "CC-BY-4.0 (http://creativecommons.org/licenses/by/4.0/)",
      "source": "https://sketchfab.com/3d-models/sitting-cat-48ff148440734e4b99465d899cf80506",
      "title": "Sitting Cat"
    },
    "generator": "Sketchfab-12.63.0",
    "version": "2.0"
  },
  "bufferViews": [
    {
      "buffer": 0,
      "byteLength": 170496,
      "name": "floatBufferViews",
      "target": 34963
    },
    {
      "buffer": 0,
      "byteLength": 60696,
      "byteOffset": 170496,
      "byteStride": 8,
      "name": "floatBufferViews",
      "target": 34962
    },
    {
      "buffer": 0,
      "byteLength": 182088,
      "byteOffset": 231192,
      "byteStride": 12,
      "name": "floatBufferViews",
      "target": 34962
    }
  ],
  "buffers": [
    {
      "byteLength": 413280,
      "uri": "scene.bin"
    }
  ],
  "images": [
    {
      "uri": "textures/ear.002_baseColor.png"
    },
    {
      "uri": "textures/skin.cat_baseColor.png"
    },
    {
      "uri": "textures/cat.001_baseColor.png"
    }
  ],
  "materials": [
    {
      "doubleSided": true,
      "name": "ear.002",
      "pbrMetallicRoughness": {
        "baseColorTexture": {
          "index": 0
        },
        "metallicFactor": 0.0,
        "roughnessFactor": 0.9552786404500042
      }
    },
    {
      "doubleSided": true,
      "name": "skin.cat",
      "pbrMetallicRoughness": {
        "baseColorTexture": {
          "index": 1
        },
        "metallicFactor": 0.0,
        "roughnessFactor": 0.9976103141524459
      }
    },
    {
      "doubleSided": true,
      "name": "cat.001",
      "pbrMetallicRoughness": {
        "baseColorTexture": {
          "index": 2
        },
        "metallicFactor": 0.0
      }
    }
  ],
  "meshes": [
    {
      "name": "ears_ear.002_0",
      "primitives": [
        {
          "attributes": {
            "NORMAL": 1,
            "POSITION": 0,
            "TEXCOORD_0": 2
          },
          "indices": 3,
          "material": 0,
          "mode": 4
        }
      ]
    },
    {
      "name": "foot_skin.cat_0",
      "primitives": [
        {
          "attributes": {
            "NORMAL": 5,
            "POSITION": 4,
            "TEXCOORD_0": 6
          },
          "indices": 7,
          "material": 1,
          "mode": 4
        }
      ]
    },
    {
      "name": "head_cat.001_0",
      "primitives": [
        {
          "attributes": {
            "NORMAL": 9,
            "POSITION": 8,
            "TEXCOORD_0": 10
          },
          "indices": 11,
          "material": 2,
          "mode": 4
        }
      ]
    },
    {
      "name": "tail_skin.cat_0",
      "primitives": [
        {
          "attributes": {
            "NORMAL": 13,
            "POSITION": 12,
            "TEXCOORD_0": 14
          },
          "indices": 15,
          "material": 1,
          "mode": 4
        }
      ]
    },
    {
      "name": "body_skin.cat_0",
      "primitives": [
        {
          "attributes": {
            "NORMAL": 17,
            "POSITION": 16,
            "TEXCOORD_0": 18
          },
          "indices": 19,
          "material": 1,
          "mode": 4
        }
      ]
    }
  ],
  "nodes": [
    {
      "children": [
        1
      ],
      "matrix": [
        1.0,
        0.0,
        0.0,
        0.0,
        0.0,
        2.220446049250313e-16,
        -1.0,
        0.0,
        0.0,
        1.0,
        2.220446049250313e-16,
        0.0,
        0.0,
        0.0,
        0.0,
        1.0
      ],
      "name": "Sketchfab_model"
    },
    {
      "children": [
        2
      ],
      "matrix": [
        0.009999999776482582,
        0.0,
        0.0,
        0.0,
        0.0,
        0.0,
        0.009999999776482582,
        0.0,
        0.0,
        -0.009999999776482582,
        0.0,
        0.0,
        0.0,
        0.0,
        0.0,
        1.0
      ],
      "name": "b0c3cacd265146c18206f6edf4e530b8.fbx"
    },
    {
      "children": [
        3
      ],
      "name": "RootNode"
    },
    {
      "children": [
        4,
        6,
        8,
        10,
        12
      ],
      "matrix": [
        0.2372004177703101,
        0.0,
        0.045020502482216854,
        0.0,
        0.0,
        0.24143505096435547,
        0.0,
        0.0,
        -0.045020502482216854,
        0.0,
        0.2372004177703101,
        0.0,
        -19.902368545532227,
        -5.3870625495910645,
        210.34359741210938,
        1.0
      ],
      "name": "cat"
    },
    {
      "children": [
        5
      ],
      "matrix": [
        33.86231931267543,
        -1.221178152989474,
        -6.280887377472914,
        0.0,
        -1.1994786803297341,
        -34.43988451849591,
        0.22928360227580658,
        0.0,
        -6.285066733370001,
        -0.00668235082038218,
        -33.88355235429218,
        0.0,
        -55.5318489074707,
        131.67410278320313,
        -879.70751953125,
        1.0
      ],
      "name": "ears"
    },
    {
      "mesh": 0,
      "name": "ears_ear.002_0"
    },
    {
      "children": [
        7
      ],
      "matrix": [
        3.2986003436648685,
        -0.975817078594563,
        -2.7422400731528587,
        0.0,
        -2.2414142444900587,
        -0.4288105909370237,
        -2.5435734702221517,
        0.0,
        0.8762055942371011,
        9.751603470409087,
        -2.4161010557394387,
        0.0,
        -62.55463409423828,
        31.722354888916016,
        -842.8753662109375,
        1.0
      ],
      "name": "foot"
    },
    {
      "mesh": 1,
      "name": "foot_skin.cat_0"
    },
    {
      "children": [
        9
      ],
      "matrix": [
        49.54730340463183,
        7.001765453812771e-16,
        -9.517021292735164,
        0.0,
        -7.141515115658064,
        -1.6548980722010177e-06,
        -37.17999627408431,
        0.0,
        -4.164340835028478e-07,
        50.50541305541987,
        -2.16802980484194e-06,
        0.0,
        -84.09529876708984,
        111.54148864746094,
        -885.0853271484375,
        1.0
      ],
      "name": "head"
    },
    {
      "mesh": 2,
      "name": "head_cat.001_0"
    },
    {
      "children": [
        11
      ],
      "matrix": [
        0.7396586783463793,
        1.0334848065472787e-06,
        -35.89937101930221,
        0.0,
        -35.811800701306694,
        -2.5065334199950335,
        -0.7378544808530129,
        0.0,
        -2.506001851182693,
        35.81940495483884,
        -0.05163179592678856,
        0.0,
        -96.64370727539063,
        31.652969360351563,
        -882.4427490234375,
        1.0
      ],
      "name": "tail"
    },
    {
      "mesh": 3,
      "name": "tail_skin.cat_0"
    },
    {
      "children": [
        13
      ],
      "matrix": [
        37.375668829082485,
        5.28173376430609e-16,
        -7.179098647320215,
        0.0,
        -7.179098647320208,
        -1.6636075261608948e-06,
        -37.37566882908245,
        0.0,
        -3.138083480623692e-07,
        38.058898925781214,
        -1.633742259405513e-06,
        0.0,
        -81.45880889892578,
        58.37062072753906,
        -871.359375,
        1.0
      ],
      "name": "body"
    },
    {
      "mesh": 4,
      "name": "body_skin.cat_0"
    }
  ],
  "samplers": [
    {
      "magFilter": 9729,
      "minFilter": 9987,
      "wrapS": 10497,
      "wrapT": 10497
    }
  ],
  "scene": 0,
  "scenes": [
    {
      "name": "Sketchfab_Scene",
      "nodes": [
        0
      ]
    }
  ],
  "textures": [
    {
      "sampler": 0,
      "source": 0
    },
    {
      "sampler": 0,
      "source": 1
    },
    {
      "sampler": 0,
      "source": 2
    }
  ]
}
